<?xml version="1.0" standalone="no"?>
<!DOCTYPE svg PUBLIC "-//W3C//DTD SVG 1.1//EN" "http://www.w3.org/Graphics/SVG/1.1/DTD/svg11.dtd" >
<svg xmlns="http://www.w3.org/2000/svg" xmlns:xlink="http://www.w3.org/1999/xlink" version="1.1">
<metadata></metadata>
<defs>
<font id="echomotors_demoregular" horiz-adv-x="1323" >
<font-face units-per-em="2048" ascent="1536" descent="-512" />
<missing-glyph horiz-adv-x="1097" />
<glyph horiz-adv-x="0" />
<glyph unicode="&#xd;" horiz-adv-x="1097" />
<glyph horiz-adv-x="0" />
<glyph horiz-adv-x="0" />
<glyph unicode=" "  horiz-adv-x="1097" />
<glyph unicode="&#x09;" horiz-adv-x="1097" />
<glyph unicode="&#xa0;" horiz-adv-x="1097" />
<glyph unicode="!" horiz-adv-x="690" d="M92 -41q0 51 19.5 97t54.5 81t80 54.5t98 19.5t99 -19.5t81 -54.5t54.5 -81t19.5 -97q0 -53 -19.5 -99t-54.5 -81t-81 -54.5t-99 -19.5t-98 19.5t-80 54.5t-54.5 81t-19.5 99zM129 377v1159h432v-1159h-432z" />
<glyph unicode="&#x22;" horiz-adv-x="1214" d="M92 1182l152 231h-142v361h439v-361l-154 -231h-295zM674 1182l151 231h-141v361h438v-361l-153 -231h-295z" />
<glyph unicode="&#x26;" horiz-adv-x="1314" d="M55 395q0 111 30 189t105 137q-66 49 -81 131t-17 192q0 119 44 199t121 129t178.5 70.5t215.5 25.5h418v-249q-176 0 -279.5 -3.5t-159 -8.5t-75.5 -12t-31 -17q-18 -18 -27.5 -59.5t-10.5 -88.5t7.5 -89t26.5 -60q8 -10 23.5 -17.5t49.5 -11.5t92 -6t155 -2v243h362 v-243h62v-248h-62q0 -174 1 -275.5t4 -156.5t8.5 -79t13.5 -42l35 -43h-377q-25 43 -31 56.5t-10 23.5q-51 -41 -129 -75t-195 -34q-100 0 -185 26t-146.5 78t-97.5 132t-38 188zM446 395q0 -174 175 -174q35 0 72.5 9.5t69.5 29t53.5 49t23.5 70.5v217h-176q-57 0 -98.5 -7 t-68 -28.5t-39 -61.5t-12.5 -104z" />
<glyph unicode="'" horiz-adv-x="632" d="M92 1182l152 231h-142v361h439v-361l-154 -231h-295z" />
<glyph unicode="(" horiz-adv-x="669" d="M53 735q0 295 47 557t140 480h385q-88 -217 -137.5 -479.5t-49.5 -557.5q0 -293 49.5 -554t135.5 -478h-385q-88 217 -136.5 478t-48.5 554z" />
<glyph unicode=")" horiz-adv-x="669" d="M45 -297q88 217 137 478t49 554q0 295 -49 557t-137 480h385q88 -217 137 -479.5t49 -557.5q0 -293 -48 -554t-136 -478h-387z" />
<glyph unicode="," horiz-adv-x="632" d="M92 -231l152 231h-142v360h439v-360l-154 -231h-295z" />
<glyph unicode="." horiz-adv-x="692" d="M92 252q0 53 20.5 99t54.5 81t80 54.5t99 19.5q51 0 98.5 -19.5t81 -54.5t54 -81t20.5 -99t-20.5 -98t-54 -80t-81 -54.5t-98.5 -19.5q-53 0 -99 19.5t-80 54.5t-54.5 80t-20.5 98z" />
<glyph unicode="/" horiz-adv-x="1144" d="M29 -301l809 2073h368l-803 -2073h-374z" />
<glyph unicode="?" horiz-adv-x="1429" d="M45 1137q2 152 58.5 264t149.5 187t216 114t258 41q117 0 232.5 -34t208 -99.5t149.5 -166t57 -231.5q0 -115 -42 -190.5t-104.5 -136t-135 -119.5t-134.5 -139q-45 -61 -55 -138t-14 -163h-424q-2 150 15.5 238.5t51.5 158.5q18 39 56.5 80t84.5 83t94 85t88 85t65.5 83 t25.5 80q0 43 -22.5 72.5t-58.5 49t-76.5 27.5t-77.5 8q-45 0 -89 -13t-80 -42t-58.5 -75t-26.5 -109h-412zM424 -96q0 53 20.5 99t54 81t80 54.5t99.5 19.5q51 0 98 -19.5t81 -54.5t54.5 -81t20.5 -99t-20.5 -98.5t-54.5 -80t-81 -54t-98 -19.5q-53 0 -99.5 19.5t-80 54 t-54 79.5t-20.5 99z" />
<glyph unicode="A" horiz-adv-x="1679" d="M29 0l587 1475h447l588 -1475h-441l-116 295h-508l-117 -295h-440zM705 590h270l-135 340z" />
<glyph unicode="B" horiz-adv-x="1470" d="M92 0v1475h774q82 -2 157 -35t130 -89.5t88 -132t33 -161.5q0 -59 -15.5 -112.5t-44.5 -106.5q92 -63 146.5 -164t54.5 -219q0 -90 -32.5 -170t-92 -141.5t-140.5 -99.5t-175 -44h-883zM528 305h355q59 0 103 43t44 109q0 61 -42 104t-105 47h-355v-303zM528 920h228 q53 0 94 38.5t41 98.5q0 57 -38 96t-97 43h-228v-276z" />
<glyph unicode="C" horiz-adv-x="1685" d="M53 739q0 162 54.5 304.5t153.5 252t240.5 176t315.5 76.5h119q117 0 221.5 -32.5t193.5 -91t158.5 -141.5t114.5 -181l-373 -139q-51 92 -142 147t-202 55h-61q-84 -2 -158 -36.5t-128 -92t-86 -134.5t-32 -163q0 -82 30 -157.5t84 -134t128 -94.5t162 -38h61 q111 0 202 55.5t142 147.5l389 -96q-41 -109 -110.5 -198t-160.5 -154.5t-200.5 -101.5t-232.5 -36h-119q-164 2 -304 66.5t-242.5 173.5t-160 255t-57.5 312z" />
<glyph unicode="D" horiz-adv-x="1546" d="M92 0v1475l684 2q147 -2 277.5 -61.5t227.5 -159t154.5 -233.5t57.5 -286q0 -145 -54.5 -275t-149.5 -229.5t-226 -161t-285 -69.5zM537 369h211q74 2 139 30.5t114.5 77.5t78 115.5t28.5 144.5q0 74 -26.5 138.5t-75 114.5t-114 81t-144.5 37h-211v-739z" />
<glyph unicode="E" d="M92 0v1475h1180v-295h-742v-295h594v-295h-594v-293h742v-297h-1180z" />
<glyph unicode="F" d="M92 0v1475h1180v-295h-742v-295h594v-295h-594v-590h-438z" />
<glyph unicode="G" horiz-adv-x="1720" d="M53 739q0 162 54.5 304.5t153.5 252t240.5 176t315.5 76.5h119q115 0 219.5 -32.5t193.5 -92t158.5 -141.5t114.5 -180l-373 -139q-51 92 -142 146t-202 54h-59q-84 -2 -158 -35.5t-128 -91t-86 -134.5t-32 -163q0 -84 30 -158.5t83 -133t127 -94.5t164 -38h59 q111 0 202 53.5t142 145.5h-327v295h747v-295q-29 -125 -97.5 -231.5t-164.5 -185.5t-217 -123t-254 -44h-119q-166 2 -305 66.5t-241.5 174.5t-160 256t-57.5 312z" />
<glyph unicode="H" horiz-adv-x="1658" d="M92 0v1475h445v-590h591v590h439v-1475h-439v590h-591v-590h-445z" />
<glyph unicode="I" horiz-adv-x="622" d="M92 0v1475h438v-1475h-438z" />
<glyph unicode="J" horiz-adv-x="1593" d="M45 471l430 162q2 -55 24.5 -102.5t59.5 -82t85 -55t104 -20.5h45q55 0 103 20.5t85 55t59.5 82t24.5 102.5v844h440v-844q0 -141 -48 -266t-136 -219.5t-214 -152.5t-280 -67h-116q-123 0 -233.5 41t-199 114t-148.5 172t-85 216z" />
<glyph unicode="K" horiz-adv-x="1597" d="M92 0v1475h445v-574l518 574h512l-668 -738l668 -737h-512l-518 571v-571h-445z" />
<glyph unicode="L" horiz-adv-x="1306" d="M92 0v1475h420v-1180h743v-295h-1163z" />
<glyph unicode="M" horiz-adv-x="2045" d="M92 0v1475h668l262 -863l262 863h670v-1475h-445v1008l-301 -1008h-370l-301 1008v-1008h-445z" />
<glyph unicode="N" horiz-adv-x="1658" d="M92 0v1475h440l594 -846v846h441v-1475h-441l-591 844v-844h-443z" />
<glyph unicode="O" horiz-adv-x="1751" d="M53 737q0 162 53.5 304.5t153.5 252t240.5 176t316.5 76.5h117q168 -2 307 -66.5t239.5 -173t157 -255t60.5 -314.5q0 -160 -54.5 -303t-153.5 -252.5t-240.5 -177t-315.5 -76.5h-117q-164 2 -304 66.5t-242.5 174.5t-160 256t-57.5 312zM442 737q0 -82 30 -157.5 t84 -134t128 -94.5t162 -38h59q84 2 158 36t129 91.5t87 134t32 162.5q0 84 -31 159t-84 133t-128 93t-163 39h-59q-84 -2 -158 -35.5t-128 -91t-86 -134.5t-32 -163z" />
<glyph unicode="P" horiz-adv-x="1392" d="M92 0v1475h746q102 -2 193 -43t158.5 -111t107.5 -163t40 -197q0 -102 -37.5 -192.5t-104.5 -160t-159 -112.5t-198 -50h-308v-446h-438zM530 788h246q33 0 62.5 13.5t53 37t37 55.5t13.5 67q0 70 -47 117.5t-119 51.5h-246v-342z" />
<glyph unicode="Q" horiz-adv-x="1753" d="M53 735q0 162 54.5 304.5t153.5 252t240.5 176t315.5 76.5h119q164 -2 304 -66.5t242.5 -174t160 -256t57.5 -312.5q0 -160 -56.5 -309.5t-168.5 -271.5l147 -211l-377 -95l-80 115q-29 -8 -58.5 -14t-69.5 -11.5t-93 -7.5t-127 -2q-164 2 -304 66.5t-242.5 173t-160 255 t-57.5 312.5zM442 735q0 -82 30 -157.5t84 -134t128 -94.5t162 -38h74l-115 164l379 94l53 -77q74 106 74 243q0 82 -30 158t-83 134t-128 94t-163 40h-61q-84 -2 -158 -36.5t-128 -92t-86 -134.5t-32 -163z" />
<glyph unicode="R" horiz-adv-x="1443" d="M92 0v1475h746q102 -2 193 -43t158.5 -110t107.5 -162t40 -199q0 -76 -21.5 -149t-63.5 -136.5t-101 -113.5t-133 -81l397 -481h-510l-370 446h-5v-446h-438zM530 788h246q33 0 63.5 14.5t54.5 38t37 54.5t13 66q0 70 -48 117.5t-120 51.5h-246v-342z" />
<glyph unicode="S" horiz-adv-x="1562" d="M45 360l416 115q6 -45 41 -76.5t79 -52t91 -32t78 -13.5q18 -2 44 -3q19 0 43 2q56 3 111.5 18.5t93.5 45.5q32 25 32 65q0 6 -1 13q-6 25 -46 42.5t-91 30.5t-99.5 21.5t-70.5 12.5q-111 20 -225.5 50t-208.5 84t-157.5 143t-74.5 229q0 127 61.5 219t158 152.5t216 89 t234.5 28.5q106 0 210.5 -21.5t199 -67.5t174.5 -120.5t135 -179.5l-402 -111q-47 72 -135 99.5t-178 27.5q-29 0 -69.5 -4t-79.5 -16t-67 -36.5t-30 -63.5q0 -27 26 -46.5t70 -35t101 -27.5t119 -22h2q68 -12 145.5 -32t154.5 -50.5t145.5 -72.5t119.5 -98.5t77 -128.5 q18 -52 18 -114q0 -24 -3 -49q-8 -92 -49 -162t-103.5 -121t-141.5 -85t-163 -53q-86 -20 -172 -26q-52 -4 -99 -4q-32 0 -62 2q-96 10 -198.5 39t-194 81t-164 129t-111.5 185z" />
<glyph unicode="T" horiz-adv-x="1347" d="M14 1180v295h1319v-295h-438v-1180h-440v1180h-441z" />
<glyph unicode="U" horiz-adv-x="1650" d="M88 608v869h442l2 -897q2 -55 24 -102.5t58.5 -83.5t85 -56.5t103.5 -20.5h47q55 0 103 20.5t85 56.5t59.5 83t24.5 103v897h441v-873q0 -139 -54.5 -262t-146.5 -215t-216 -145.5t-263 -53.5h-115q-139 2 -262 56.5t-215 145.5t-146.5 214t-56.5 264z" />
<glyph unicode="V" horiz-adv-x="1761" d="M31 1475h514l336 -891l333 891h517l-592 -1475h-2h-512h-4z" />
<glyph unicode="W" horiz-adv-x="2275" d="M31 1475h479l203 -816l243 816h371h2l238 -799l198 799h480l-365 -1475h-475l-262 864l-262 -864h-4h-482z" />
<glyph unicode="X" horiz-adv-x="1605" d="M31 0l516 737l-516 738h512l260 -373l262 373h510l-516 -738l516 -737h-510l-262 373l-260 -373h-512z" />
<glyph unicode="Y" horiz-adv-x="1720" d="M31 1475h477l352 -527l352 527h478l-588 -881v-594h-481v592z" />
<glyph unicode="Z" horiz-adv-x="1441" d="M29 0l708 1180h-635v295h1289l-707 -1180h633v-295h-1288z" />
<glyph unicode="a" horiz-adv-x="1679" d="M29 0l587 1475h447l588 -1475h-441l-116 295h-508l-117 -295h-440zM705 590h270l-135 340z" />
<glyph unicode="b" horiz-adv-x="1470" d="M92 0v1475h774q82 -2 157 -35t130 -89.5t88 -132t33 -161.5q0 -59 -15.5 -112.5t-44.5 -106.5q92 -63 146.5 -164t54.5 -219q0 -90 -32.5 -170t-92 -141.5t-140.5 -99.5t-175 -44h-883zM528 305h355q59 0 103 43t44 109q0 61 -42 104t-105 47h-355v-303zM528 920h228 q53 0 94 38.5t41 98.5q0 57 -38 96t-97 43h-228v-276z" />
<glyph unicode="c" horiz-adv-x="1685" d="M53 739q0 162 54.5 304.5t153.5 252t240.5 176t315.5 76.5h119q117 0 221.5 -32.5t193.5 -91t158.5 -141.5t114.5 -181l-373 -139q-51 92 -142 147t-202 55h-61q-84 -2 -158 -36.5t-128 -92t-86 -134.5t-32 -163q0 -82 30 -157.5t84 -134t128 -94.5t162 -38h61 q111 0 202 55.5t142 147.5l389 -96q-41 -109 -110.5 -198t-160.5 -154.5t-200.5 -101.5t-232.5 -36h-119q-164 2 -304 66.5t-242.5 173.5t-160 255t-57.5 312z" />
<glyph unicode="d" horiz-adv-x="1546" d="M92 0v1475l684 2q147 -2 277.5 -61.5t227.5 -159t154.5 -233.5t57.5 -286q0 -145 -54.5 -275t-149.5 -229.5t-226 -161t-285 -69.5zM537 369h211q74 2 139 30.5t114.5 77.5t78 115.5t28.5 144.5q0 74 -26.5 138.5t-75 114.5t-114 81t-144.5 37h-211v-739z" />
<glyph unicode="e" d="M92 0v1475h1180v-295h-742v-295h594v-295h-594v-293h742v-297h-1180z" />
<glyph unicode="f" d="M92 0v1475h1180v-295h-742v-295h594v-295h-594v-590h-438z" />
<glyph unicode="g" horiz-adv-x="1720" d="M53 739q0 162 54.5 304.5t153.5 252t240.5 176t315.5 76.5h119q115 0 219.5 -32.5t193.5 -92t158.5 -141.5t114.5 -180l-373 -139q-51 92 -142 146t-202 54h-59q-84 -2 -158 -35.5t-128 -91t-86 -134.5t-32 -163q0 -84 30 -158.5t83 -133t127 -94.5t164 -38h59 q111 0 202 53.5t142 145.5h-327v295h747v-295q-29 -125 -97.5 -231.5t-164.5 -185.5t-217 -123t-254 -44h-119q-166 2 -305 66.5t-241.5 174.5t-160 256t-57.5 312z" />
<glyph unicode="h" horiz-adv-x="1658" d="M92 0v1475h445v-590h591v590h439v-1475h-439v590h-591v-590h-445z" />
<glyph unicode="i" horiz-adv-x="622" d="M92 0v1475h438v-1475h-438z" />
<glyph unicode="j" horiz-adv-x="1593" d="M45 471l430 162q2 -55 24.5 -102.5t59.5 -82t85 -55t104 -20.5h45q55 0 103 20.5t85 55t59.5 82t24.5 102.5v844h440v-844q0 -141 -48 -266t-136 -219.5t-214 -152.5t-280 -67h-116q-123 0 -233.5 41t-199 114t-148.5 172t-85 216z" />
<glyph unicode="k" horiz-adv-x="1597" d="M92 0v1475h445v-574l518 574h512l-668 -738l668 -737h-512l-518 571v-571h-445z" />
<glyph unicode="l" horiz-adv-x="1306" d="M92 0v1475h420v-1180h743v-295h-1163z" />
<glyph unicode="m" horiz-adv-x="2045" d="M92 0v1475h668l262 -863l262 863h670v-1475h-445v1008l-301 -1008h-370l-301 1008v-1008h-445z" />
<glyph unicode="n" horiz-adv-x="1658" d="M92 0v1475h440l594 -846v846h441v-1475h-441l-591 844v-844h-443z" />
<glyph unicode="o" horiz-adv-x="1751" d="M53 737q0 162 53.5 304.5t153.5 252t240.5 176t316.5 76.5h117q168 -2 307 -66.5t239.5 -173t157 -255t60.5 -314.5q0 -160 -54.5 -303t-153.5 -252.5t-240.5 -177t-315.5 -76.5h-117q-164 2 -304 66.5t-242.5 174.5t-160 256t-57.5 312zM442 737q0 -82 30 -157.5 t84 -134t128 -94.5t162 -38h59q84 2 158 36t129 91.5t87 134t32 162.5q0 84 -31 159t-84 133t-128 93t-163 39h-59q-84 -2 -158 -35.5t-128 -91t-86 -134.5t-32 -163z" />
<glyph unicode="p" horiz-adv-x="1392" d="M92 0v1475h746q102 -2 193 -43t158.5 -111t107.5 -163t40 -197q0 -102 -37.5 -192.5t-104.5 -160t-159 -112.5t-198 -50h-308v-446h-438zM530 788h246q33 0 62.5 13.5t53 37t37 55.5t13.5 67q0 70 -47 117.5t-119 51.5h-246v-342z" />
<glyph unicode="q" horiz-adv-x="1753" d="M53 735q0 162 54.5 304.5t153.5 252t240.5 176t315.5 76.5h119q164 -2 304 -66.5t242.5 -174t160 -256t57.5 -312.5q0 -160 -56.5 -309.5t-168.5 -271.5l147 -211l-377 -95l-80 115q-29 -8 -58.5 -14t-69.5 -11.5t-93 -7.5t-127 -2q-164 2 -304 66.5t-242.5 173t-160 255 t-57.5 312.5zM442 735q0 -82 30 -157.5t84 -134t128 -94.5t162 -38h74l-115 164l379 94l53 -77q74 106 74 243q0 82 -30 158t-83 134t-128 94t-163 40h-61q-84 -2 -158 -36.5t-128 -92t-86 -134.5t-32 -163z" />
<glyph unicode="r" horiz-adv-x="1443" d="M92 0v1475h746q102 -2 193 -43t158.5 -110t107.5 -162t40 -199q0 -76 -21.5 -149t-63.5 -136.5t-101 -113.5t-133 -81l397 -481h-510l-370 446h-5v-446h-438zM530 788h246q33 0 63.5 14.5t54.5 38t37 54.5t13 66q0 70 -48 117.5t-120 51.5h-246v-342z" />
<glyph unicode="s" horiz-adv-x="1562" d="M45 360l416 115q6 -45 41 -76.5t79 -52t91 -32t78 -13.5q18 -2 44 -3q19 0 43 2q56 3 111.5 18.5t93.5 45.5q32 25 32 65q0 6 -1 13q-6 25 -46 42.5t-91 30.5t-99.5 21.5t-70.5 12.5q-111 20 -225.5 50t-208.5 84t-157.5 143t-74.5 229q0 127 61.5 219t158 152.5t216 89 t234.5 28.5q106 0 210.5 -21.5t199 -67.5t174.5 -120.5t135 -179.5l-402 -111q-47 72 -135 99.5t-178 27.5q-29 0 -69.5 -4t-79.5 -16t-67 -36.5t-30 -63.5q0 -27 26 -46.5t70 -35t101 -27.5t119 -22h2q68 -12 145.5 -32t154.5 -50.5t145.5 -72.5t119.5 -98.5t77 -128.5 q18 -52 18 -114q0 -24 -3 -49q-8 -92 -49 -162t-103.5 -121t-141.5 -85t-163 -53q-86 -20 -172 -26q-52 -4 -99 -4q-32 0 -62 2q-96 10 -198.5 39t-194 81t-164 129t-111.5 185z" />
<glyph unicode="t" horiz-adv-x="1347" d="M14 1180v295h1319v-295h-438v-1180h-440v1180h-441z" />
<glyph unicode="u" horiz-adv-x="1650" d="M88 608v869h442l2 -897q2 -55 24 -102.5t58.5 -83.5t85 -56.5t103.5 -20.5h47q55 0 103 20.5t85 56.5t59.5 83t24.5 103v897h441v-873q0 -139 -54.5 -262t-146.5 -215t-216 -145.5t-263 -53.5h-115q-139 2 -262 56.5t-215 145.5t-146.5 214t-56.5 264z" />
<glyph unicode="v" horiz-adv-x="1761" d="M31 1475h514l336 -891l333 891h517l-592 -1475h-2h-512h-4z" />
<glyph unicode="w" horiz-adv-x="2275" d="M31 1475h479l203 -816l243 816h371h2l238 -799l198 799h480l-365 -1475h-475l-262 864l-262 -864h-4h-482z" />
<glyph unicode="x" horiz-adv-x="1605" d="M31 0l516 737l-516 738h512l260 -373l262 373h510l-516 -738l516 -737h-510l-262 373l-260 -373h-512z" />
<glyph unicode="y" horiz-adv-x="1720" d="M31 1475h477l352 -527l352 527h478l-588 -881v-594h-481v592z" />
<glyph unicode="z" horiz-adv-x="1441" d="M29 0l708 1180h-635v295h1289l-707 -1180h633v-295h-1288z" />
<glyph unicode="&#x2000;" horiz-adv-x="887" />
<glyph unicode="&#x2001;" horiz-adv-x="1774" />
<glyph unicode="&#x2002;" horiz-adv-x="887" />
<glyph unicode="&#x2003;" horiz-adv-x="1774" />
<glyph unicode="&#x2004;" horiz-adv-x="591" />
<glyph unicode="&#x2005;" horiz-adv-x="443" />
<glyph unicode="&#x2006;" horiz-adv-x="295" />
<glyph unicode="&#x2007;" horiz-adv-x="295" />
<glyph unicode="&#x2008;" horiz-adv-x="221" />
<glyph unicode="&#x2009;" horiz-adv-x="354" />
<glyph unicode="&#x200a;" horiz-adv-x="98" />
<glyph unicode="&#x202f;" horiz-adv-x="354" />
<glyph unicode="&#x205f;" horiz-adv-x="443" />
<glyph unicode="&#x25fc;" horiz-adv-x="1474" d="M0 0v1475h1475v-1475h-1475z" />
</font>
</defs>
</svg>
